<svg width="174" height="30" viewBox="0 0 174 30" fill="none" xmlns="http://www.w3.org/2000/svg">
<path d="M5.44 1.24C7.2 1.24 8.98667 1.25333 10.8 1.28C12.64 1.30667 14.3467 1.42667 15.92 1.64L15.72 5.04H7.56C6.81333 5.04 6.28 5.2 5.96 5.52C5.64 5.84 5.48 6.36 5.48 7.08V21H0.68V5.76C0.68 4.24 1.08 3.10667 1.88 2.36C2.68 1.61333 3.86667 1.24 5.44 1.24ZM31.5538 0.879999C34.0338 0.879999 35.7938 1.77333 36.8338 3.56C37.9004 5.34667 38.4338 7.93333 38.4338 11.32C38.4338 13.9067 38.1538 15.9467 37.5938 17.44C37.0604 18.9067 36.2338 19.96 35.1138 20.6C34.0204 21.2133 32.6471 21.52 30.9938 21.52C29.6604 21.52 28.3538 21.3333 27.0738 20.96C25.7938 20.56 24.6338 19.9467 23.5938 19.12L23.9138 16.72C24.9538 17.0133 25.8738 17.2667 26.6738 17.48C27.5004 17.6933 28.4204 17.8 29.4338 17.8C30.3938 17.8 31.1671 17.64 31.7538 17.32C32.3404 16.9733 32.7671 16.3333 33.0338 15.4C33.3004 14.4667 33.4338 13.12 33.4338 11.36C33.4338 9.62667 33.3138 8.28 33.0738 7.32C32.8338 6.36 32.4338 5.69333 31.8738 5.32C31.3404 4.92 30.6338 4.72 29.7538 4.72C28.7938 4.72 27.8871 4.93333 27.0338 5.36C26.1804 5.76 25.2071 6.36 24.1138 7.16L23.5138 4.6C24.1271 3.88 24.8604 3.24 25.7138 2.68C26.5938 2.12 27.5271 1.68 28.5138 1.36C29.5271 1.04 30.5404 0.879999 31.5538 0.879999ZM23.3138 1.36L23.8338 5.16L24.2338 5.72V18.4L24.0338 18.88C24.1138 19.6533 24.1671 20.4267 24.1938 21.2C24.2471 22 24.2604 22.8133 24.2338 23.64V28.8H19.3938V1.36H23.3138ZM61.6294 1.36L54.2694 21.6C53.9494 22.56 53.5494 23.44 53.0694 24.24C52.616 25.0667 52.0827 25.8 51.4694 26.44C50.856 27.1067 50.1494 27.6533 49.3494 28.08C48.2827 28.72 47.1094 29.08 45.8294 29.16C44.5494 29.2667 43.216 29.2133 41.8294 29L42.2294 25.76C43.2427 25.7867 44.176 25.7467 45.0294 25.64C45.8827 25.5333 46.6294 25.28 47.2694 24.88C47.8027 24.5333 48.2827 24.04 48.7094 23.4C49.1627 22.76 49.536 22.0667 49.8294 21.32L50.8694 18.88C51.1094 18.2933 51.336 17.6267 51.5494 16.88C51.7627 16.1067 51.9627 15.44 52.1494 14.88L56.4694 1.36H61.6294ZM45.8294 1.36L50.1494 14.88C50.2827 15.3333 50.4027 15.8 50.5094 16.28C50.616 16.7333 50.7227 17.1867 50.8294 17.64H51.8294L50.2294 21H48.9894C48.616 21 48.2827 20.8933 47.9894 20.68C47.696 20.4667 47.4827 20.1733 47.3494 19.8L40.6294 1.36H45.8294ZM70.6597 1C72.9264 1 74.7397 1.13333 76.0997 1.4C77.4597 1.66667 78.4464 2.18667 79.0597 2.96C79.673 3.70667 79.9797 4.81333 79.9797 6.28C79.9797 7.72 79.6597 8.81333 79.0197 9.56C78.4064 10.28 77.3264 10.7067 75.7797 10.84V10.96C77.5664 11.0933 78.833 11.5867 79.5797 12.44C80.3264 13.2667 80.6997 14.5067 80.6997 16.16C80.6997 17.6 80.393 18.7067 79.7797 19.48C79.1664 20.2267 78.2064 20.7333 76.8997 21C75.6197 21.2667 73.953 21.4 71.8997 21.4C70.5664 21.4 69.1797 21.3467 67.7397 21.24C66.3264 21.16 64.9397 20.9867 63.5797 20.72L63.8997 17.32C65.0464 17.4267 66.2997 17.52 67.6597 17.6C69.0197 17.6533 70.3264 17.68 71.5797 17.68C73.2064 17.68 74.2997 17.52 74.8597 17.2C75.4464 16.8533 75.7397 16.1733 75.7397 15.16C75.7397 14.4933 75.6064 13.9867 75.3397 13.64C75.0997 13.2667 74.673 13.0133 74.0597 12.88C73.473 12.72 72.6597 12.64 71.6197 12.64L66.3397 12.6V9.48L71.5797 9.4C72.5397 9.4 73.273 9.33333 73.7797 9.2C74.313 9.04 74.6864 8.8 74.8997 8.48C75.113 8.13333 75.2197 7.64 75.2197 7C75.2197 6.36 75.0864 5.88 74.8197 5.56C74.5797 5.24 74.1397 5.02667 73.4997 4.92C72.8864 4.81333 72.0064 4.76 70.8597 4.76C69.713 4.76 68.5664 4.8 67.4197 4.88C66.2997 4.93333 65.313 5.01333 64.4597 5.12L64.0997 1.72C65.2997 1.4 66.4864 1.2 67.6597 1.12C68.833 1.04 69.833 1 70.6597 1ZM94.0941 0.879999C96.4674 0.879999 98.3607 1.21333 99.7741 1.88C101.214 2.54667 102.241 3.64 102.854 5.16C103.494 6.68 103.814 8.69333 103.814 11.2C103.814 13.7067 103.494 15.72 102.854 17.24C102.241 18.7333 101.214 19.8267 99.7741 20.52C98.3607 21.1867 96.4674 21.52 94.0941 21.52C91.7207 21.52 89.8141 21.1867 88.3741 20.52C86.9341 19.8267 85.8941 18.7333 85.2541 17.24C84.6141 15.72 84.2941 13.7067 84.2941 11.2C84.2941 8.69333 84.6141 6.68 85.2541 5.16C85.8941 3.64 86.9341 2.54667 88.3741 1.88C89.8141 1.21333 91.7207 0.879999 94.0941 0.879999ZM94.0941 4.56C92.8941 4.56 91.9474 4.76 91.2541 5.16C90.5874 5.53333 90.1074 6.2 89.8141 7.16C89.5207 8.12 89.3741 9.46667 89.3741 11.2C89.3741 12.9333 89.5207 14.28 89.8141 15.24C90.1074 16.2 90.5874 16.8667 91.2541 17.24C91.9474 17.6133 92.8941 17.8 94.0941 17.8C95.2674 17.8 96.1874 17.6133 96.8541 17.24C97.5474 16.8667 98.0274 16.2 98.2941 15.24C98.5874 14.28 98.7341 12.9333 98.7341 11.2C98.7341 9.46667 98.5874 8.12 98.2941 7.16C98.0274 6.2 97.5474 5.53333 96.8541 5.16C96.1874 4.76 95.2674 4.56 94.0941 4.56ZM117.334 1.16C119.441 1.16 121.108 1.30667 122.334 1.6C123.561 1.89333 124.441 2.42667 124.974 3.2C125.534 3.94667 125.814 5.01333 125.814 6.4C125.814 7.78667 125.481 8.84 124.814 9.56C124.174 10.28 123.081 10.7067 121.534 10.84V10.96C123.401 11.0933 124.694 11.6 125.414 12.48C126.161 13.36 126.534 14.5867 126.534 16.16C126.534 17.4933 126.254 18.5333 125.694 19.28C125.161 20.0267 124.294 20.56 123.094 20.88C121.921 21.1733 120.374 21.32 118.454 21.32C116.961 21.32 115.654 21.3067 114.534 21.28C113.414 21.28 112.374 21.2533 111.414 21.2C110.481 21.1733 109.508 21.1333 108.494 21.08L109.014 17.8C109.574 17.8267 110.628 17.8533 112.174 17.88C113.748 17.88 115.588 17.88 117.694 17.88C118.681 17.88 119.468 17.8133 120.054 17.68C120.668 17.52 121.094 17.24 121.334 16.84C121.601 16.44 121.734 15.88 121.734 15.16C121.734 14.0667 121.428 13.3333 120.814 12.96C120.201 12.56 119.108 12.36 117.534 12.36H108.974V9.44H117.534C118.468 9.44 119.201 9.37333 119.734 9.24C120.294 9.10667 120.694 8.85333 120.934 8.48C121.174 8.10667 121.294 7.58667 121.294 6.92C121.294 6.30667 121.161 5.82667 120.894 5.48C120.628 5.13333 120.188 4.89333 119.574 4.76C118.988 4.62667 118.174 4.56 117.134 4.56C115.881 4.53333 114.761 4.52 113.774 4.52C112.788 4.52 111.908 4.52 111.134 4.52C110.361 4.52 109.654 4.56 109.014 4.64L108.494 1.4C109.401 1.32 110.268 1.26667 111.094 1.24C111.948 1.21333 112.868 1.2 113.854 1.2C114.868 1.17333 116.028 1.16 117.334 1.16ZM113.054 1.4V21.08H108.494V1.4H113.054ZM149.552 1.36V21L145.192 21.04V9.56C145.192 9.08 145.205 8.61333 145.232 8.16C145.285 7.68 145.325 7.17333 145.352 6.64H145.272C145.085 7.06667 144.858 7.53333 144.592 8.04C144.325 8.52 144.058 8.93333 143.792 9.28L135.272 21H131.112V1.36H135.472V12.96C135.472 13.4133 135.458 13.8667 135.432 14.32C135.405 14.7467 135.365 15.2267 135.312 15.76H135.392C135.605 15.3067 135.832 14.8667 136.072 14.44C136.338 14.0133 136.605 13.6267 136.872 13.28L145.432 1.36H149.552ZM172.816 1.36C172.363 2.69333 171.949 3.86667 171.576 4.88C171.203 5.89333 170.843 6.74667 170.496 7.44C170.149 8.10667 169.749 8.66667 169.296 9.12C168.869 9.57333 168.349 9.93333 167.736 10.2C167.149 10.44 166.429 10.6133 165.576 10.72V10.88C166.456 10.96 167.216 11.12 167.856 11.36C168.496 11.6 169.043 11.96 169.496 12.44C169.976 12.8933 170.403 13.4933 170.776 14.24C171.176 14.96 171.576 15.88 171.976 17C172.403 18.12 172.883 19.4533 173.416 21H168.336C167.883 19.6133 167.469 18.4267 167.096 17.44C166.723 16.4533 166.376 15.64 166.056 15C165.736 14.36 165.376 13.8667 164.976 13.52C164.603 13.1467 164.149 12.8933 163.616 12.76C163.109 12.6 162.509 12.52 161.816 12.52L161.776 9.12C162.629 9.12 163.349 8.98667 163.936 8.72C164.523 8.42667 165.016 7.97333 165.416 7.36C165.843 6.74667 166.243 5.96 166.616 5C166.989 4.01333 167.403 2.8 167.856 1.36H172.816ZM159.936 1.36V6.76C159.936 7.4 159.883 8.06667 159.776 8.76C159.669 9.45333 159.496 10.1067 159.256 10.72C159.469 11.3067 159.629 11.92 159.736 12.56C159.869 13.2 159.936 13.7867 159.936 14.32V21H155.096V1.36H159.936ZM163.216 9.12V12.52H158.656V9.12H163.216Z" fill="black"/>
</svg>
